<?xml version="1.0" standalone="no"?>
<svg xmlns:xlink="http://www.w3.org/1999/xlink" id="wave" style="transform:rotate(0deg); transition: 0.3s" viewBox="0 0 1440 110" version="1.1" xmlns="http://www.w3.org/2000/svg"><defs><linearGradient id="sw-gradient-0" x1="0" x2="0" y1="1" y2="0"><stop stop-color="rgba(136.692, 214.434, 238.152, 1)" offset="0%"/><stop stop-color="rgba(25.414, 92.436, 255, 1)" offset="100%"/></linearGradient></defs><path style="transform:translate(0, 0px); opacity:1" fill="url(#sw-gradient-0)" d="M0,44L24,47.7C48,51,96,59,144,53.2C192,48,240,29,288,23.8C336,18,384,26,432,27.5C480,29,528,26,576,36.7C624,48,672,73,720,84.3C768,95,816,92,864,78.8C912,66,960,44,1008,44C1056,44,1104,66,1152,73.3C1200,81,1248,73,1296,67.8C1344,62,1392,59,1440,64.2C1488,70,1536,84,1584,89.8C1632,95,1680,92,1728,91.7C1776,92,1824,95,1872,82.5C1920,70,1968,40,2016,34.8C2064,29,2112,48,2160,53.2C2208,59,2256,51,2304,42.2C2352,33,2400,22,2448,14.7C2496,7,2544,4,2592,9.2C2640,15,2688,29,2736,44C2784,59,2832,73,2880,75.2C2928,77,2976,66,3024,67.8C3072,70,3120,84,3168,80.7C3216,77,3264,55,3312,40.3C3360,26,3408,18,3432,14.7L3456,11L3456,110L3432,110C3408,110,3360,110,3312,110C3264,110,3216,110,3168,110C3120,110,3072,110,3024,110C2976,110,2928,110,2880,110C2832,110,2784,110,2736,110C2688,110,2640,110,2592,110C2544,110,2496,110,2448,110C2400,110,2352,110,2304,110C2256,110,2208,110,2160,110C2112,110,2064,110,2016,110C1968,110,1920,110,1872,110C1824,110,1776,110,1728,110C1680,110,1632,110,1584,110C1536,110,1488,110,1440,110C1392,110,1344,110,1296,110C1248,110,1200,110,1152,110C1104,110,1056,110,1008,110C960,110,912,110,864,110C816,110,768,110,720,110C672,110,624,110,576,110C528,110,480,110,432,110C384,110,336,110,288,110C240,110,192,110,144,110C96,110,48,110,24,110L0,110Z"/></svg>