<?xml version="1.0" standalone="no"?>
<svg xmlns:xlink="http://www.w3.org/1999/xlink" id="wave" style="transform:rotate(0deg); transition: 0.3s" viewBox="0 0 1440 490" version="1.1" xmlns="http://www.w3.org/2000/svg"><defs><linearGradient id="sw-gradient-0" x1="0" x2="0" y1="1" y2="0"><stop stop-color="rgba(255, 54.077, 54.077, 0.17)" offset="0%"/><stop stop-color="rgba(239.489, 140.14, 126.505, 0.17)" offset="100%"/></linearGradient></defs><path style="transform:translate(0, 0px); opacity:1" fill="url(#sw-gradient-0)" d="M0,392L60,383.8C120,376,240,359,360,351.2C480,343,600,343,720,351.2C840,359,960,376,1080,326.7C1200,278,1320,163,1440,106.2C1560,49,1680,49,1800,40.8C1920,33,2040,16,2160,73.5C2280,131,2400,261,2520,277.7C2640,294,2760,196,2880,187.8C3000,180,3120,261,3240,318.5C3360,376,3480,408,3600,367.5C3720,327,3840,212,3960,187.8C4080,163,4200,229,4320,269.5C4440,310,4560,327,4680,310.3C4800,294,4920,245,5040,253.2C5160,261,5280,327,5400,334.8C5520,343,5640,294,5760,277.7C5880,261,6000,278,6120,302.2C6240,327,6360,359,6480,383.8C6600,408,6720,425,6840,383.8C6960,343,7080,245,7200,212.3C7320,180,7440,212,7560,228.7C7680,245,7800,245,7920,245C8040,245,8160,245,8280,220.5C8400,196,8520,147,8580,122.5L8640,98L8640,490L8580,490C8520,490,8400,490,8280,490C8160,490,8040,490,7920,490C7800,490,7680,490,7560,490C7440,490,7320,490,7200,490C7080,490,6960,490,6840,490C6720,490,6600,490,6480,490C6360,490,6240,490,6120,490C6000,490,5880,490,5760,490C5640,490,5520,490,5400,490C5280,490,5160,490,5040,490C4920,490,4800,490,4680,490C4560,490,4440,490,4320,490C4200,490,4080,490,3960,490C3840,490,3720,490,3600,490C3480,490,3360,490,3240,490C3120,490,3000,490,2880,490C2760,490,2640,490,2520,490C2400,490,2280,490,2160,490C2040,490,1920,490,1800,490C1680,490,1560,490,1440,490C1320,490,1200,490,1080,490C960,490,840,490,720,490C600,490,480,490,360,490C240,490,120,490,60,490L0,490Z"/></svg>